<svg xmlns="http://www.w3.org/2000/svg" xmlns:xlink="http://www.w3.org/1999/xlink" version="1.1" x="0px" y="0px" viewBox="0 0 100 100" enable-background="new 0 0 100 100" xml:space="preserve" style="max-width:100%" height="100%" color="#fff"><path d="M97.903,26.352c-0.275-0.947-1.094-1.634-2.073-1.741l-11.793-1.298C80.833,15.414,75.54,9.837,68.655,7.136  c-2.321-0.91-4.796-1.371-7.354-1.371c-11.307,0-21.485,8.891-22.688,19.82c-0.263,2.388-0.15,4.751,0.312,7.022L20.23,17.048  c-0.521-0.434-1.197-0.629-1.871-0.544c-0.672,0.087-1.278,0.45-1.671,1.002c-0.19,0.267-18.212,26.148,2.035,47.7  C13.354,69.614,5.006,76.153,3.195,77.569c-0.568,0.444-0.909,1.116-0.934,1.837c-0.025,0.719,0.271,1.413,0.807,1.895  c7.898,7.096,17.667,11.462,28.25,12.626c1.855,0.204,3.738,0.308,5.595,0.308c0.002,0,0.001,0,0.003,0  c25.806,0,47.4-19.372,50.229-45.062c0.443-4.042,0.47-8.275,0.079-12.33l9.864-7.909C97.856,28.317,98.178,27.298,97.903,26.352z   M83.133,33.875c-0.657,0.527-0.996,1.356-0.896,2.193c0.494,4.095,0.517,8.442,0.062,12.572  c-2.556,23.217-22.068,40.723-45.387,40.721c-1.68,0-3.383-0.093-5.063-0.278c-8.589-0.944-16.584-4.223-23.293-9.524  c3.991-3.137,11.395-8.987,15.349-12.321c0.532-0.448,0.847-1.102,0.865-1.797c0.019-0.694-0.26-1.364-0.767-1.841  c-16.798-15.795-8.421-34.607-4.749-41.024l26.475,22.032c1.012,0.843,2.512,0.728,3.384-0.26c0.873-0.988,0.802-2.49-0.161-3.391  c-4.106-3.846-6.109-9.255-5.496-14.84c0.939-8.536,8.944-15.48,17.844-15.48c1.947,0,3.823,0.348,5.575,1.035  c6.038,2.369,10.457,7.329,13.133,14.742c0.348,0.963,1.246,1.578,2.228,1.602l7.215,0.794L83.133,33.875z" style="" fill="currentColor"></path><path d="M63.789,19.709c-3.949-0.436-7.401,2.418-7.827,6.275c-0.429,3.887,2.387,7.398,6.274,7.826  c0.263,0.029,0.523,0.043,0.782,0.043c3.62,0,6.649-2.715,7.046-6.317C70.492,23.649,67.678,20.138,63.789,19.709z M65.221,27.003  c-0.134,1.21-1.226,2.094-2.451,1.964c-1.216-0.134-2.098-1.233-1.963-2.449c0.123-1.128,1.07-1.979,2.203-1.979  c0.081,0,0.164,0.004,0.246,0.013C64.473,24.687,65.354,25.787,65.221,27.003z" style="" fill="currentColor"></path></svg>